<svg viewBox="0 0 26 26" fill="none" xmlns="http://www.w3.org/2000/svg">
<path fill-rule="evenodd" clip-rule="evenodd" d="M15.8884 1.34863C15.8884 0.934419 16.2242 0.598633 16.6384 0.598633H24.374H24.3747C24.789 0.598633 25.1247 0.934419 25.1247 1.34863V9.08495C25.1247 9.49917 24.789 9.83495 24.3747 9.83495C23.9605 9.83495 23.6247 9.49917 23.6247 9.08495V3.15855L2.97577 23.8075H8.90136C9.31557 23.8075 9.65136 24.1433 9.65136 24.5575C9.65136 24.9717 9.31557 25.3075 8.90136 25.3075H1.17522C1.12384 25.3082 1.07241 25.3037 1.02179 25.2939C0.997054 25.2891 0.972509 25.283 0.948261 25.2757C0.833502 25.2412 0.725385 25.1786 0.634709 25.0879C0.555123 25.0083 0.497163 24.9153 0.460828 24.8162C0.431209 24.7355 0.415039 24.6484 0.415039 24.5575V16.8212C0.415039 16.407 0.750825 16.0712 1.16504 16.0712C1.57925 16.0712 1.91504 16.407 1.91504 16.8212V22.7469L22.5633 2.09863H16.6384C16.2242 2.09863 15.8884 1.76285 15.8884 1.34863Z" />
</svg>
