<svg className="my-svg" width="24" height="24" viewBox="0 0 24 24" fill="none" xmlns="http://www.w3.org/2000/svg">
  <path d="M7.93997 14.5099C7.31997 14.2799 6.76997 13.8299 6.41997 13.1899C5.61997 11.7299 6.10997 9.82989 7.52997 8.94989L9.86996 7.49988C11.28 6.61988 13.1 7.09987 13.9 8.54987C14.7 10.0099 14.21 11.9099 12.79 12.7899L12.48 13.0099" className="stroke-color"  strokeWidth="1.5" strokeLinecap="round" strokeLinejoin="round"/>
  <path d="M16.11 9.44922C16.73 9.67922 17.28 10.1292 17.63 10.7692C18.43 12.2292 17.94 14.1292 16.52 15.0092L14.1799 16.4592C12.7699 17.3392 10.9499 16.8592 10.1499 15.4092C9.34995 13.9492 9.83995 12.0492 11.2599 11.1692L11.57 10.9492" className="stroke-color"  strokeWidth="1.5" strokeLinecap="round" strokeLinejoin="round"/>
  <path d="M12 22C17.5228 22 22 17.5228 22 12C22 6.47715 17.5228 2 12 2C6.47715 2 2 6.47715 2 12C2 17.5228 6.47715 22 12 22Z" className="stroke-color"  strokeWidth="1.5" strokeLinecap="round" strokeLinejoin="round"/>
</svg>
