<svg width="26" height="26" viewBox="0 0 26 26" fill="none" xmlns="http://www.w3.org/2000/svg">
<path d="M13.0003 2.1665C7.03116 2.1665 2.16699 7.03067 2.16699 12.9998C2.16699 18.969 7.03116 23.8332 13.0003 23.8332C18.9695 23.8332 23.8337 18.969 23.8337 12.9998C23.8337 7.03067 18.9695 2.1665 13.0003 2.1665ZM16.6403 15.4915C16.9545 15.8057 16.9545 16.3257 16.6403 16.6398C16.4778 16.8023 16.272 16.8782 16.0662 16.8782C15.8603 16.8782 15.6545 16.8023 15.492 16.6398L13.0003 14.1482L10.5087 16.6398C10.3462 16.8023 10.1403 16.8782 9.93449 16.8782C9.72866 16.8782 9.52283 16.8023 9.36033 16.6398C9.04616 16.3257 9.04616 15.8057 9.36033 15.4915L11.852 12.9998L9.36033 10.5082C9.04616 10.194 9.04616 9.674 9.36033 9.35984C9.67449 9.04567 10.1945 9.04567 10.5087 9.35984L13.0003 11.8515L15.492 9.35984C15.8062 9.04567 16.3262 9.04567 16.6403 9.35984C16.9545 9.674 16.9545 10.194 16.6403 10.5082L14.1487 12.9998L16.6403 15.4915Z" fill="#FF0000"/>
</svg>
