<svg width="26" height="26" viewBox="0 0 26 26" fill="none" xmlns="http://www.w3.org/2000/svg">
<path d="M23.0212 9.91249C20.5187 5.97999 16.857 3.71582 13.0003 3.71582C11.072 3.71582 9.19783 4.27915 7.48616 5.32999C5.77449 6.39165 4.23616 7.94082 2.97949 9.91249C1.89616 11.6133 1.89616 14.3758 2.97949 16.0767C5.48199 20.02 9.14366 22.2733 13.0003 22.2733C14.9287 22.2733 16.8028 21.71 18.5145 20.6592C20.2262 19.5975 21.7645 18.0483 23.0212 16.0767C24.1045 14.3867 24.1045 11.6133 23.0212 9.91249ZM13.0003 17.3767C10.5737 17.3767 8.62366 15.4158 8.62366 13C8.62366 10.5842 10.5737 8.62332 13.0003 8.62332C15.427 8.62332 17.377 10.5842 17.377 13C17.377 15.4158 15.427 17.3767 13.0003 17.3767Z" fill="#484950"/>
<path d="M12.9996 9.90186C11.2988 9.90186 9.91211 11.2885 9.91211 13.0002C9.91211 14.701 11.2988 16.0877 12.9996 16.0877C14.7004 16.0877 16.0979 14.701 16.0979 13.0002C16.0979 11.2994 14.7004 9.90186 12.9996 9.90186Z" fill="#484950"/>
</svg>
