<svg width="26" height="26" viewBox="0 0 26 26" fill="none" xmlns="http://www.w3.org/2000/svg">
<path d="M13.0003 2.1665C7.03116 2.1665 2.16699 7.03067 2.16699 12.9998C2.16699 18.969 7.03116 23.8332 13.0003 23.8332C18.9695 23.8332 23.8337 18.969 23.8337 12.9998C23.8337 7.03067 18.9695 2.1665 13.0003 2.1665ZM18.1787 10.5082L12.0362 16.6507C11.8845 16.8023 11.6787 16.889 11.462 16.889C11.2453 16.889 11.0395 16.8023 10.8878 16.6507L7.82199 13.5848C7.50783 13.2707 7.50783 12.7507 7.82199 12.4365C8.13616 12.1223 8.65616 12.1223 8.97033 12.4365L11.462 14.9282L17.0303 9.35984C17.3445 9.04567 17.8645 9.04567 18.1787 9.35984C18.4928 9.674 18.4928 10.1832 18.1787 10.5082Z" fill="#18C08F"/>
</svg>
