<svg width="24" height="24" viewBox="0 0 24 24" fill="none" xmlns="http://www.w3.org/2000/svg">
<path fill-rule="evenodd" clip-rule="evenodd" d="M3.46313 11.2325C2.98736 11.7083 2.69765 12.635 2.69765 14.7589L2.69765 16.8757C2.69765 18.9996 2.98736 19.9263 3.46313 20.4021C3.93891 20.8779 4.86564 21.1676 6.98954 21.1676L17.5733 21.1676C19.6972 21.1676 20.624 20.8779 21.0997 20.4021C21.5755 19.9263 21.8652 18.9996 21.8652 16.8757L21.8652 14.7589C21.8652 12.635 21.5755 11.7083 21.0997 11.2325C20.624 10.7567 19.6972 10.467 17.5733 10.467L6.98954 10.467C4.86564 10.467 3.93891 10.7568 3.46313 11.2325ZM2.04892 9.81831C2.77237 9.09487 3.75301 8.74077 4.93105 8.58167L4.93105 7.35028C4.93105 5.53884 5.19523 3.65893 6.34296 2.23411C7.52831 0.762579 9.46422 -6.29488e-07 12.2813 -5.06349e-07C14.7877 -3.96792e-07 16.6711 0.554143 17.9248 1.72422C19.1939 2.90871 19.6316 4.54836 19.6316 6.2919C19.6316 6.84418 19.1839 7.2919 18.6316 7.2919C18.0793 7.2919 17.6316 6.84418 17.6316 6.2919C17.6316 4.8603 17.2755 3.85399 16.5602 3.18633C15.8293 2.50424 14.5377 2 12.2813 2C9.80652 2 8.5673 2.66094 7.90049 3.48874C7.19605 4.36325 6.93105 5.65848 6.93105 7.35028L6.93105 8.4671L6.98954 8.46704L17.5733 8.46704C19.683 8.46704 21.4022 8.70652 22.514 9.81831C23.6258 10.9301 23.8652 12.6493 23.8652 14.7589L23.8652 16.8757C23.8652 18.9853 23.6258 20.7045 22.514 21.8163C21.4022 22.9281 19.683 23.1676 17.5733 23.1676L6.98954 23.1676C4.87993 23.1676 3.16071 22.9281 2.04892 21.8163C0.937127 20.7045 0.697646 18.9853 0.697646 16.8757L0.697646 14.7589C0.697647 12.6493 0.937128 10.9301 2.04892 9.81831ZM10.4594 15.8173C10.4594 14.8109 11.2753 13.995 12.2817 13.995C13.2882 13.995 14.1041 14.8109 14.1041 15.8173C14.1041 16.8238 13.2882 17.6397 12.2817 17.6397C11.2753 17.6397 10.4594 16.8238 10.4594 15.8173ZM12.2817 11.995C10.1707 11.995 8.45937 13.7063 8.45937 15.8173C8.45937 17.9283 10.1707 19.6397 12.2817 19.6397C14.3927 19.6397 16.1041 17.9283 16.1041 15.8173C16.1041 13.7063 14.3927 11.995 12.2817 11.995Z" fill="#868B90"/>
</svg>
