<svg width="16" height="16" viewBox="0 0 16 16" fill="none" xmlns="http://www.w3.org/2000/svg">
<g clip-path="url(#clip0_2007_6675)">
<path d="M11.9866 7.19334V9.86001C11.9866 10.0333 11.9799 10.2 11.9599 10.36C11.8066 12.16 10.7466 13.0533 8.79325 13.0533H8.52659C8.35992 13.0533 8.19991 13.1333 8.09991 13.2667L7.29993 14.3333C6.94659 14.8067 6.37325 14.8067 6.01992 14.3333L5.21991 13.2667C5.13324 13.1533 4.93992 13.0533 4.79325 13.0533H4.52659C2.39992 13.0533 1.33325 12.5267 1.33325 9.86001V7.19334C1.33325 5.24001 2.23326 4.18001 4.02659 4.02667C4.18659 4.00667 4.35326 4 4.52659 4H8.79325C10.9199 4 11.9866 5.06667 11.9866 7.19334Z" stroke="#353535" stroke-width="1.5" stroke-miterlimit="10" stroke-linecap="round" stroke-linejoin="round"/>
<path d="M14.6533 4.52635V7.19301C14.6533 9.15301 13.7533 10.2063 11.9599 10.3597C11.9799 10.1997 11.9866 10.033 11.9866 9.85968V7.19301C11.9866 5.06635 10.9199 3.99967 8.79327 3.99967H4.52661C4.35328 3.99967 4.18661 4.00635 4.02661 4.02635C4.17994 2.23301 5.23994 1.33301 7.19328 1.33301H11.4599C13.5866 1.33301 14.6533 2.39968 14.6533 4.52635Z" stroke="#353535" stroke-width="1.5" stroke-miterlimit="10" stroke-linecap="round" stroke-linejoin="round"/>
<path d="M8.99708 8.83333H9.00308" stroke="#33353B" stroke-width="2" stroke-linecap="round" stroke-linejoin="round"/>
<path d="M6.66359 8.83333H6.66959" stroke="#33353B" stroke-width="2" stroke-linecap="round" stroke-linejoin="round"/>
<path d="M4.33033 8.83333H4.33633" stroke="#33353B" stroke-width="2" stroke-linecap="round" stroke-linejoin="round"/>
</g>
<defs>
<clipPath id="clip0_2007_6675">
<rect width="16" height="16" fill="white"/>
</clipPath>
</defs>
</svg>
