<svg width="20" height="22" viewBox="0 0 20 22" fill="none" xmlns="http://www.w3.org/2000/svg">
<path fill-rule="evenodd" clip-rule="evenodd" d="M1.90039 5.97236C1.90039 4.65404 2.23008 3.67 2.83468 3.0189C3.42994 2.37785 4.39882 1.9447 5.92805 1.9447H13.5723C15.1015 1.9447 16.0704 2.37785 16.6657 3.0189C17.2703 3.67 17.6 4.65404 17.6 5.97236V15.5277C17.6 16.846 17.2703 17.83 16.6657 18.4812C16.0704 19.1222 15.1015 19.5553 13.5723 19.5553H5.92805C4.39882 19.5553 3.42994 19.1222 2.83468 18.4812C2.23008 17.83 1.90039 16.846 1.90039 15.5277V5.97236ZM5.92805 0.444702C4.11292 0.444702 2.69297 0.967084 1.73549 1.99822C0.787349 3.0193 0.400391 4.42409 0.400391 5.97236V15.5277C0.400391 17.076 0.787349 18.4808 1.73549 19.5018C2.69297 20.533 4.11292 21.0553 5.92805 21.0553H13.5723C15.3874 21.0553 16.8074 20.533 17.7649 19.5018C18.713 18.4808 19.1 17.076 19.1 15.5277V5.97236C19.1 4.42409 18.713 3.0193 17.7649 1.99822C16.8074 0.967084 15.3874 0.444702 13.5723 0.444702H5.92805ZM12.8892 3.58353C12.8892 3.16932 12.5534 2.83353 12.1392 2.83353C11.725 2.83353 11.3892 3.16932 11.3892 3.58353V5.4946C11.3892 6.9599 12.585 8.15566 14.0503 8.15566H15.9613C16.3755 8.15566 16.7113 7.81987 16.7113 7.40566C16.7113 6.99145 16.3755 6.65566 15.9613 6.65566H14.0503C13.4134 6.65566 12.8892 6.13147 12.8892 5.4946V3.58353ZM5.17794 11.7056C5.17794 11.2914 5.51373 10.9556 5.92794 10.9556H9.75007C10.1643 10.9556 10.5001 11.2914 10.5001 11.7056C10.5001 12.1198 10.1643 12.4556 9.75007 12.4556H5.92794C5.51373 12.4556 5.17794 12.1198 5.17794 11.7056ZM5.92794 14.7777C5.51373 14.7777 5.17794 15.1135 5.17794 15.5277C5.17794 15.9419 5.51373 16.2777 5.92794 16.2777H13.5722C13.9864 16.2777 14.3222 15.9419 14.3222 15.5277C14.3222 15.1135 13.9864 14.7777 13.5722 14.7777H5.92794Z" fill="#868B90"/>
</svg>
