<svg width="24" height="24" viewBox="0 0 24 24" fill="none" xmlns="http://www.w3.org/2000/svg">
<path fill-rule="evenodd" clip-rule="evenodd" d="M5.85405 4.38722C6.156 1.67641 8.59172 -0.271084 11.3025 0.0308632C14.0133 0.332811 15.9608 2.76854 15.6589 5.47934C15.3569 8.19014 12.9212 10.1376 10.2104 9.83569C8.99136 9.69991 7.92668 9.13261 7.15151 8.30284C7.26171 8.68032 7.1421 9.10373 6.81592 9.36453L4.68537 11.068C4.25401 11.4129 3.62474 11.3428 3.27985 10.9115C2.93495 10.4801 3.00505 9.85084 3.4364 9.50595L5.56695 7.80246C5.89312 7.54167 6.33244 7.51815 6.67641 7.70867C6.03744 6.76987 5.71825 5.60636 5.85405 4.38722ZM11.0811 2.01857C9.4681 1.8389 8.02143 2.9956 7.84176 4.60862C7.66209 6.22164 8.81878 7.66832 10.4318 7.84799C12.0448 8.02766 13.4915 6.87096 13.6712 5.25794C13.8508 3.64491 12.6942 2.19824 11.0811 2.01857ZM16.6695 1.25654C16.7575 0.711302 17.2708 0.34059 17.816 0.428532C18.3231 0.510313 18.8693 0.613412 19.3675 0.739414C19.8447 0.860079 20.3565 1.02052 20.7478 1.24269C23.1308 2.58653 23.991 5.1282 23.991 8.5563V14.894C23.991 17.6334 23.4493 19.8111 21.9817 21.2787C20.514 22.7463 18.3364 23.2881 15.597 23.2881H9.25926C6.51991 23.2881 4.34222 22.7463 2.8746 21.2787C1.40698 19.8111 0.865234 17.6334 0.865234 14.894V11.7252C0.865234 11.1729 1.31295 10.7252 1.86523 10.7252C2.41752 10.7252 2.86523 11.1729 2.86523 11.7252V14.894C2.86523 17.4361 3.37978 18.9555 4.28881 19.8645C5.19785 20.7735 6.71717 21.2881 9.25926 21.2881H15.597C18.1391 21.2881 19.6584 20.7735 20.5675 19.8645C21.4765 18.9555 21.991 17.4361 21.991 14.894V8.5563C21.991 5.39396 21.2038 3.79535 19.7643 2.98412L19.7609 2.98222C19.6138 2.89855 19.3183 2.78993 18.8772 2.67838C18.4565 2.57199 17.9729 2.47968 17.4975 2.40301C16.9523 2.31507 16.5816 1.80178 16.6695 1.25654ZM12.4844 12.7814C12.4844 12.2291 12.9321 11.7814 13.4844 11.7814H18.7658C19.3181 11.7814 19.7658 12.2291 19.7658 12.7814C19.7658 13.3337 19.3181 13.7814 18.7658 13.7814H13.4844C12.9321 13.7814 12.4844 13.3337 12.4844 12.7814ZM11.3721 16.0067C10.8198 16.0067 10.3721 16.4544 10.3721 17.0067C10.3721 17.559 10.8198 18.0067 11.3721 18.0067H18.7661C19.3184 18.0067 19.7661 17.559 19.7661 17.0067C19.7661 16.4544 19.3184 16.0067 18.7661 16.0067H11.3721Z" fill="#868B90"/>
</svg>
