<svg width="100%" height="100%" viewBox="0 0 22 21" fill="none" xmlns="http://www.w3.org/2000/svg">
<path fill-rule="evenodd" clip-rule="evenodd" d="M21.25 0C21.6642 0 22 0.335786 22 0.75C22 1.16421 21.6642 1.5 21.25 1.5H20.33V12.72C20.33 13.934 19.7604 15.0876 18.7791 15.8206L18.7787 15.8209L13.5694 19.7204L13.5691 19.7206C12.1928 20.7498 10.2971 20.7498 8.92083 19.7206L8.92052 19.7204L3.71119 15.8209L3.71075 15.8206C2.7295 15.0875 2.15997 13.934 2.15997 12.72V1.5H1.25C0.835787 1.5 0.5 1.16421 0.5 0.75C0.5 0.335786 0.835787 0 1.25 0H2.15997H2.90997H19.58H20.33H21.25ZM3.65997 1.5H18.83V12.72C18.83 13.4658 18.4797 14.1721 17.8812 14.6191L17.8805 14.6196L12.6708 18.5193C11.8271 19.1502 10.6628 19.1502 9.8191 18.5193L4.60942 14.6196L4.60876 14.6191C4.01028 14.1721 3.65997 13.4658 3.65997 12.72V1.5ZM16 6.25C16 5.83579 15.6642 5.5 15.25 5.5H7.25C6.83579 5.5 6.5 5.83579 6.5 6.25C6.5 6.66421 6.83579 7 7.25 7H15.25C15.6642 7 16 6.66421 16 6.25ZM15.25 10.5C15.6642 10.5 16 10.8358 16 11.25C16 11.6642 15.6642 12 15.25 12H7.25C6.83579 12 6.5 11.6642 6.5 11.25C6.5 10.8358 6.83579 10.5 7.25 10.5H15.25Z" fill="#868B90"/>
</svg>
