<svg width="100%" height="100%" viewBox="0 0 40 40" fill="none" xmlns="http://www.w3.org/2000/svg">
<rect width="100%" height="100%" rx="20" fill="#FF0000" fill-opacity="0.17"/>
<path fill-rule="evenodd" clip-rule="evenodd" d="M14.1854 25.6298C14.4408 25.8853 14.7644 26.0045 15.088 26.0045C15.4115 26.0045 15.7521 25.8853 15.9906 25.6298L19.9075 21.7129L23.8245 25.6298C24.08 25.8853 24.4035 26.0045 24.7271 26.0045C25.0507 26.0045 25.3743 25.8853 25.6297 25.6298C26.1236 25.136 26.1236 24.3185 25.6297 23.8246L21.7127 19.9077L25.6297 15.9907C26.1236 15.4968 26.1236 14.6794 25.6297 14.1855C25.1358 13.6916 24.3184 13.6916 23.8245 14.1855L19.9075 18.1024L15.9906 14.1855C15.4967 13.6916 14.6792 13.6916 14.1854 14.1855C13.6915 14.6794 13.6915 15.4968 14.1854 15.9907L18.1023 19.9077L14.1854 23.8246C13.6915 24.3185 13.6915 25.136 14.1854 25.6298Z" fill="#C30000"/>
</svg>
