<svg  viewBox="0 0 22 24" fill="none" xmlns="http://www.w3.org/2000/svg">
<path fill-rule="evenodd" clip-rule="evenodd" d="M17.9742 2C19.3792 2 20.5 3.12299 20.5 4.493L20.5 16.406C20.5 17.776 19.3792 18.899 17.9742 18.899H17.1553C16.1 18.899 15.0675 19.3121 14.3117 20.067L14.3101 20.0686L12.4463 21.9106C11.8867 22.4629 10.9699 22.463 10.4102 21.9109L10.4102 21.9108L10.4099 21.9106L8.54615 20.0686L8.54458 20.067C7.78967 19.313 6.76847 18.899 5.70094 18.899H4.87106C3.46775 18.899 2.34527 17.7667 2.34527 16.406L2.34527 4.493C2.34527 3.12299 3.4661 2 4.87106 2L17.9742 2ZM22 4.493C22 2.28148 20.1945 0.5 17.9742 0.5L4.87106 0.5C2.65082 0.5 0.845274 2.28148 0.845274 4.493L0.845274 16.406C0.845274 18.6049 2.64917 20.399 4.87106 20.399H5.70094C6.37975 20.399 7.01759 20.6614 7.48549 21.1293L7.48863 21.1324L9.35585 22.9778L9.35615 22.9781C10.4999 24.1072 12.3563 24.1072 13.5001 22.9781L13.5004 22.9778L15.3676 21.1324L15.3707 21.1293C15.8377 20.6623 16.486 20.399 17.1553 20.399H17.9742C20.1945 20.399 22 18.6175 22 16.406L22 4.493ZM11.4227 5.63621C12.4136 5.63621 13.2169 6.43947 13.2169 7.43036C13.2169 8.42126 12.4136 9.22457 11.4227 9.22457C10.4318 9.22457 9.62846 8.42126 9.62846 7.43036C9.62846 6.43947 10.4317 5.63621 11.4227 5.63621ZM14.7169 7.43036C14.7169 5.611 13.242 4.13621 11.4227 4.13621C9.60336 4.13621 8.12846 5.611 8.12846 7.43036C8.12846 9.24969 9.60334 10.7246 11.4227 10.7246C13.242 10.7246 14.7169 9.24969 14.7169 7.43036ZM11.4223 11.8453C14.0992 11.8453 16.54 13.6393 16.54 16.1549C16.54 16.5691 16.2043 16.9049 15.79 16.9049C15.3758 16.9049 15.04 16.5691 15.04 16.1549C15.04 14.7396 13.5718 13.3453 11.4223 13.3453C9.27285 13.3453 7.80461 14.7396 7.80461 16.1549C7.80461 16.5691 7.46882 16.9049 7.05461 16.9049C6.64039 16.9049 6.30461 16.5691 6.30461 16.1549C6.30461 13.6393 8.74547 11.8453 11.4223 11.8453Z" />
</svg>
