<svg width="100%" height="100%" viewBox="0 0 40 40" fill="none" xmlns="http://www.w3.org/2000/svg">
<rect width="100%" height="100%" rx="20" fill="#E9E9E9"/>
<path fill-rule="evenodd" clip-rule="evenodd" d="M18.7502 21.6667C18.7502 22.35 19.3168 22.9167 20.0002 22.9167C20.6835 22.9167 21.2502 22.35 21.2502 21.6667V13.3334C21.2502 12.65 20.6835 12.0834 20.0002 12.0834C19.3168 12.0834 18.7502 12.65 18.7502 13.3334V21.6667ZM19.3668 28.2C19.5668 28.2833 19.7835 28.3333 20.0002 28.3333C20.2168 28.3333 20.4335 28.2833 20.6335 28.2C20.8335 28.1166 21.0168 28 21.1835 27.85C21.3335 27.6833 21.4502 27.5166 21.5335 27.3C21.6168 27.1 21.6668 26.8833 21.6668 26.6666C21.6668 26.45 21.6168 26.2333 21.5335 26.0333C21.4502 25.8333 21.3335 25.65 21.1835 25.4833C21.0168 25.3333 20.8335 25.2166 20.6335 25.1333C20.2335 24.9666 19.7668 24.9666 19.3668 25.1333C19.1668 25.2166 18.9835 25.3333 18.8168 25.4833C18.6668 25.65 18.5502 25.8333 18.4668 26.0333C18.3835 26.2333 18.3335 26.45 18.3335 26.6666C18.3335 26.8833 18.3835 27.1 18.4668 27.3C18.5502 27.5166 18.6668 27.6833 18.8168 27.85C18.9835 28 19.1668 28.1166 19.3668 28.2Z" fill="#353535"/>
</svg>
