<svg width="24" height="24" viewBox="0 0 24 24" fill="none" xmlns="http://www.w3.org/2000/svg">
<path fill-rule="evenodd" clip-rule="evenodd" d="M5.27734 5.83417C5.27734 3.71748 6.98687 2 9.11151 2C11.226 2 12.9445 3.71781 12.9457 5.83207C12.936 7.89194 11.3305 9.55938 9.30643 9.65581C9.17536 9.64686 9.03826 9.64732 8.90796 9.65591C6.88146 9.56057 5.27734 7.89181 5.27734 5.83417ZM9.11151 0C5.87937 0 3.27734 2.61585 3.27734 5.83417C3.27734 8.98506 5.76126 11.5516 8.89282 11.6569C8.93423 11.6583 8.97569 11.6571 9.01695 11.6533C9.07964 11.6476 9.14637 11.6485 9.18621 11.6525C9.23043 11.6569 9.27489 11.6584 9.31931 11.6569C12.4516 11.5516 14.9326 8.98525 14.9457 5.83833H14.9457V5.83417C14.9457 2.61438 12.3313 0 9.11151 0ZM17.1786 2.17755C16.6264 2.17755 16.1786 2.62527 16.1786 3.17755C16.1786 3.72984 16.6264 4.17755 17.1786 4.17755C18.7367 4.17755 19.9894 5.43735 19.9894 6.98827C19.9894 8.4848 18.8169 9.70973 17.3439 9.79674C17.2028 9.78623 17.0613 9.79015 16.9267 9.8051C16.3778 9.86609 15.9822 10.3605 16.0432 10.9094C16.1042 11.4583 16.5986 11.8539 17.1475 11.7929C17.1606 11.7914 17.1727 11.7908 17.1827 11.7908L17.1925 11.791L17.1962 11.7913C17.2497 11.798 17.3037 11.8003 17.3576 11.7983C19.9281 11.7021 21.9894 9.58666 21.9894 6.98827C21.9894 4.33651 19.845 2.17755 17.1786 2.17755ZM9.29885 12.1807C11.4256 12.1807 13.6037 12.7139 15.2947 13.843C16.8204 14.8583 17.7161 16.2979 17.7161 17.8665C17.7161 19.4348 16.8208 20.8766 15.2963 21.8971L15.2961 21.8973C13.6001 23.0321 11.4189 23.5687 9.29069 23.5687C7.16292 23.5687 4.98226 23.0323 3.2864 21.898C1.76086 20.8827 0.865234 19.4432 0.865234 17.8747C0.865234 16.3064 1.76053 14.8646 3.28508 13.844L3.28875 13.8416L3.28876 13.8416C4.98918 12.7141 7.17148 12.1807 9.29885 12.1807ZM4.39584 15.5072C3.2869 16.2502 2.86523 17.127 2.86523 17.8747C2.86523 18.6221 3.28662 19.496 4.39527 20.2336L4.39746 20.235C5.69557 21.1036 7.46667 21.5687 9.29069 21.5687C11.1147 21.5687 12.8858 21.1036 14.1839 20.235C15.2941 19.4918 15.7161 18.6146 15.7161 17.8665C15.7161 17.1191 15.2948 16.2452 14.1861 15.5076L14.1846 15.5066C12.8924 14.6436 11.1241 14.1807 9.29886 14.1807C7.47485 14.1807 5.70027 14.643 4.39584 15.5072ZM19.5329 13.0898C18.9941 12.9684 18.4589 13.3067 18.3375 13.8455C18.2161 14.3842 18.5544 14.9194 19.0932 15.0408C19.759 15.1909 20.3475 15.4451 20.8075 15.7964L20.8075 15.7965L20.8144 15.8017C21.4467 16.2759 21.6883 16.8383 21.6883 17.3262C21.6883 17.814 21.4467 18.3765 20.8144 18.8507L20.8144 18.8507L20.8054 18.8576C20.3318 19.2212 19.7354 19.4817 19.0764 19.619C18.5358 19.7316 18.1888 20.2612 18.3014 20.8019C18.4141 21.3426 18.9437 21.6896 19.4844 21.5769C20.3914 21.388 21.274 21.0181 22.0189 20.4473C23.0823 19.6479 23.6883 18.5243 23.6883 17.3262C23.6883 16.1277 23.0819 15.0037 22.0179 14.2043C21.281 13.6425 20.4119 13.2878 19.5329 13.0898Z" fill="#868B90"/>
</svg>
