<svg xmlns="http://www.w3.org/2000/svg" width="100%" height="100%" viewBox="0 0 16 20" fill="none">
<path d="M2.61873 1H13.3693C14.2632 1 15 1.77678 15 2.7191V4.60372C15 5.29136 14.5893 6.14456 14.1907 6.57752L10.6878 9.83743C10.2046 10.2704 9.87839 11.1236 9.87839 11.8112V15.5041C9.87839 16.0135 9.55227 16.7011 9.14157 16.9685L8.00612 17.7453C6.94314 18.4329 5.48151 17.6561 5.48151 16.2809V11.7348C5.48151 11.1363 5.1554 10.3595 4.82926 9.92658L1.73697 6.48837C1.32627 6.05541 1.00015 5.29136 1.00015 4.76927V2.79551C0.988067 1.77678 1.72486 1 2.61873 1Z" stroke="#868B90" stroke-opacity="0.5" stroke-width="2" stroke-miterlimit="10" stroke-linecap="round" stroke-linejoin="round"/>
</svg>