<svg  viewBox="0 0 22 22" fill="none" xmlns="http://www.w3.org/2000/svg">
<path fill-rule="evenodd" clip-rule="evenodd" d="M18.2254 5.30951C18.2254 3.20668 16.5268 1.5 14.4159 1.5C12.3147 1.5 10.6072 3.20695 10.6064 5.30798C10.6157 7.35713 12.2165 9.01748 14.2344 9.10751C14.3555 9.09867 14.4841 9.09908 14.6057 9.1076C16.6255 9.0185 18.2254 7.35708 18.2254 5.30951ZM14.4159 0C17.3574 0 19.7254 2.38045 19.7254 5.30951C19.7254 8.17748 17.4649 10.5126 14.6156 10.6083C14.5846 10.6094 14.5535 10.6085 14.5226 10.6057C14.4524 10.5993 14.3771 10.5999 14.3262 10.605C14.293 10.6083 14.2597 10.6094 14.2264 10.6083C11.3766 10.5125 9.11831 8.17762 9.10638 5.31263L9.10637 5.30951C9.10637 2.37935 11.4857 0 14.4159 0ZM6.80595 2.05383C7.22017 2.05383 7.55595 2.38962 7.55595 2.80383C7.55595 3.21805 7.22017 3.55383 6.80595 3.55383C5.22935 3.55383 3.96175 4.82891 3.96175 6.39804C3.96175 7.91713 5.15524 9.15923 6.65214 9.24056C6.77618 9.23044 6.90203 9.23348 7.02228 9.24684C7.43396 9.29258 7.73061 9.66339 7.68487 10.0751C7.63912 10.4868 7.26831 10.7834 6.85663 10.7377C6.81561 10.7331 6.78262 10.7343 6.76548 10.7365C6.72533 10.7415 6.68484 10.7432 6.6444 10.7417C4.32321 10.6548 2.46175 8.74437 2.46175 6.39804C2.46175 4.00328 4.39813 2.05383 6.80595 2.05383ZM14.2387 11.4886C12.2619 11.4886 10.2472 11.9847 8.6908 13.024C7.29195 13.9548 6.49286 15.2579 6.49286 16.6582C6.49286 18.0582 7.29158 19.3635 8.6895 20.2993L8.68964 20.2994C10.2509 21.344 12.2685 21.8432 14.2464 21.8432C16.2239 21.8432 18.2411 21.3442 19.8022 20.3001C21.201 19.3693 22 18.0662 22 16.6659C22 15.266 21.2013 13.9606 19.8034 13.0248L19.8006 13.023C18.235 11.9849 16.216 11.4886 14.2387 11.4886ZM18.9703 14.2722C20.0565 14.9999 20.5 15.8814 20.5 16.6659C20.5 17.4503 20.0567 18.3291 18.9707 19.0516L18.9691 19.0527C17.7063 19.8977 15.9962 20.3432 14.2464 20.3432C12.4967 20.3432 10.7866 19.8977 9.52378 19.0527C8.43666 18.3249 7.99286 17.443 7.99286 16.6582C7.99286 15.8739 8.43615 14.995 9.52214 14.2725L9.52326 14.2718C10.7806 13.432 12.4881 12.9886 14.2387 12.9886C15.9885 12.9886 17.7017 13.4316 18.9703 14.2722ZM4.6286 12.3413C5.03268 12.2503 5.43407 12.504 5.52513 12.9081C5.61619 13.3122 5.36244 13.7136 4.95836 13.8046C4.30972 13.9508 3.72742 14.2004 3.26672 14.5522L3.26674 14.5522L3.26153 14.5561C2.62323 15.0349 2.36004 15.6197 2.36004 16.1486C2.36004 16.6775 2.62323 17.2623 3.26153 17.7411L3.26156 17.741L3.2683 17.7462C3.74123 18.1094 4.33159 18.3657 4.97725 18.5003C5.38276 18.5847 5.64301 18.9819 5.55853 19.3875C5.47404 19.793 5.07683 20.0532 4.67132 19.9687C3.83961 19.7955 3.03464 19.4571 2.35812 18.9385C1.39658 18.2159 0.860043 17.2102 0.860043 16.1486C0.860043 15.0867 1.39688 14.0807 2.35893 13.3581C3.0273 12.8484 3.82007 12.5235 4.6286 12.3413Z" />
</svg>
