<svg xmlns="http://www.w3.org/2000/svg" width="23" height="21" viewBox="0 0 23 21" fill="none">
  <path d="M20.4444 10.12L20.4444 18.48C20.4444 19.3195 19.748 20 18.8889 20L4.11111 20C3.252 20 2.55555 19.3195 2.55556 18.48L2.55556 10.12M11.1111 3.66C11.1111 2.19092 9.89233 1 8.38889 1C6.88545 1 5.66667 2.19092 5.66667 3.66C5.66667 5.12908 6.88545 6.32 8.38889 6.32C9.1506 6.32 11.1111 6.32 11.1111 6.32M11.1111 3.66C11.1111 4.38478 11.1111 6.32 11.1111 6.32M11.1111 3.66C11.1111 2.19092 12.3299 1 13.8333 1C15.3368 1 16.5556 2.19092 16.5556 3.66C16.5556 5.12908 15.3368 6.32 13.8333 6.32C13.0716 6.32 11.1111 6.32 11.1111 6.32M11.1111 6.32L11.1111 20M2.16667 10.12L20.8333 10.12C21.4777 10.12 22 9.6096 22 8.98L22 7.46C22 6.83039 21.4777 6.32 20.8333 6.32L2.16667 6.32C1.52233 6.32 1 6.8304 1 7.46L1 8.98C1 9.6096 1.52233 10.12 2.16667 10.12Z" stroke="#626262" stroke-width="2" stroke-linecap="round" stroke-linejoin="round"/>
</svg>