<svg width="21" height="24" viewBox="0 0 21 24" fill="none" xmlns="http://www.w3.org/2000/svg">
<path fill-rule="evenodd" clip-rule="evenodd" d="M11.5168 1.79637C9.95663 1.79637 8.50795 2.28909 7.29929 3.13513C6.90798 3.40905 6.38065 3.29584 6.12147 2.88227C5.86229 2.4687 5.96941 1.91138 6.36073 1.63746C7.8391 0.602626 9.61265 0 11.5168 0C16.6798 0 20.8652 4.42345 20.8652 9.88006C20.8652 13.4911 20.2147 16.9437 19.0294 20.1125C18.8569 20.5738 18.3631 20.7999 17.9266 20.6175C17.4901 20.4352 17.2762 19.9133 17.4487 19.452C18.5567 16.4902 19.1655 13.2614 19.1655 9.88006C19.1655 5.41556 15.7411 1.79637 11.5168 1.79637ZM4.89553 4.17792C5.28685 4.45183 5.39397 5.00915 5.13479 5.42272C4.33428 6.70011 3.86807 8.23118 3.86807 9.88006C3.86807 11.812 3.34292 13.617 2.4342 15.141C2.18396 15.5607 1.6592 15.6865 1.2621 15.422C0.865011 15.1576 0.745964 14.603 0.996205 14.1833C1.73882 12.9378 2.16835 11.4634 2.16835 9.88006C2.16835 7.86763 2.73855 5.99323 3.71771 4.43078C3.97688 4.01721 4.50421 3.904 4.89553 4.17792ZM11.5168 6.28731C9.63934 6.28731 8.11736 7.89584 8.11736 9.88006C8.11736 13.5923 6.78482 16.9776 4.59854 19.5273C4.28336 19.8949 3.74591 19.9229 3.39811 19.5897C3.05031 19.2566 3.02387 18.6886 3.33905 18.3211C5.253 16.0889 6.41764 13.1294 6.41764 9.88006C6.41764 6.90373 8.70061 4.49094 11.5168 4.49094C14.333 4.49094 16.6159 6.90373 16.6159 9.88006C16.6159 10.5354 16.5907 11.185 16.5405 11.8278C16.5018 12.3222 16.0913 12.6898 15.6235 12.649C15.1558 12.6081 14.8079 12.1743 14.8465 11.6799C14.8929 11.087 14.9162 10.4867 14.9162 9.88006C14.9162 7.89584 13.3942 6.28731 11.5168 6.28731ZM11.5171 8.98187C11.9865 8.98187 12.367 9.384 12.367 9.88006C12.367 14.5604 10.7529 18.8446 8.08208 22.1414C7.77682 22.5182 7.24032 22.5621 6.88379 22.2395C6.52726 21.9169 6.4857 21.3499 6.79097 20.9731C9.20812 17.9894 10.6673 14.116 10.6673 9.88006C10.6673 9.384 11.0478 8.98187 11.5171 8.98187ZM15.1867 15.189C15.6381 15.3251 15.8996 15.8221 15.7708 16.2992C15.1251 18.6914 14.1277 20.9265 12.8418 22.9379C12.5791 23.3489 12.0508 23.457 11.6619 23.1793C11.273 22.9016 11.1707 22.3433 11.4334 21.9322C12.6205 20.0753 13.5407 18.0129 14.1363 15.8063C14.2651 15.3293 14.7354 15.0529 15.1867 15.189Z" fill="#868B90"/>
</svg>
