<svg width="22" height="22" viewBox="0 0 22 22" fill="none" xmlns="http://www.w3.org/2000/svg">
<path d="M6.86523 11H6.11523H6.86523ZM14.8652 11H15.6152H14.8652ZM10.8652 15V15.75V15ZM12.9346 20.7856L13.0891 21.5195L12.9346 20.7856ZM8.79583 20.7856L8.6414 21.5195L8.79583 20.7856ZM1.60384 7.22119L0.909524 6.93761H0.909524L1.60384 7.22119ZM1.07962 13.0694L0.345688 13.2238L1.07962 13.0694ZM8.79583 1.21438L8.6414 0.480454L8.79583 1.21438ZM12.9346 1.21438L13.0891 0.480455L12.9346 1.21438ZM20.0461 7.25728L20.2638 7.97499L20.0461 7.25728ZM1.60384 7.22119L0.909524 6.93761L0.668306 7.5282L1.21255 7.86103L1.60384 7.22119ZM1.6832 7.25692L1.9009 6.53921L1.6832 7.25692ZM19.4333 7.50731C19.8727 8.58399 20.1152 9.76274 20.1152 11H21.6152C21.6152 9.56509 21.3337 8.19407 20.8221 6.94055L19.4333 7.50731ZM20.1152 11C20.1152 11.6573 20.0468 12.2978 19.9169 12.915L21.3848 13.2238C21.5359 12.5057 21.6152 11.7617 21.6152 11H20.1152ZM19.9169 12.915C19.1655 16.4862 16.3514 19.3002 12.7802 20.0517L13.0891 21.5195C17.2422 20.6456 20.5109 17.377 21.3848 13.2238L19.9169 12.915ZM12.7802 20.0517C12.163 20.1816 11.5225 20.25 10.8652 20.25V21.75C11.6269 21.75 12.3709 21.6707 13.0891 21.5195L12.7802 20.0517ZM10.8652 20.25C10.208 20.25 9.56748 20.1816 8.95026 20.0517L8.6414 21.5195C9.35957 21.6707 10.1035 21.75 10.8652 21.75V20.25ZM1.61523 11C1.61523 9.76178 1.85813 8.58215 2.29816 7.50478L0.909524 6.93761C0.397214 8.19193 0.115235 9.56397 0.115235 11H1.61523ZM8.95026 20.0517C5.37906 19.3002 2.565 16.4862 1.81354 12.915L0.345688 13.2238C1.21959 17.377 4.48828 20.6456 8.6414 21.5195L8.95026 20.0517ZM1.81354 12.915C1.68367 12.2978 1.61523 11.6573 1.61523 11H0.115235C0.115235 11.7617 0.19457 12.5057 0.345688 13.2238L1.81354 12.915ZM2.29816 7.50478C3.44348 4.70064 5.92609 2.58466 8.95026 1.94831L8.6414 0.480454C5.1226 1.22088 2.2401 3.6799 0.909524 6.93761L2.29816 7.50478ZM8.95026 1.94831C9.56748 1.81844 10.208 1.75 10.8652 1.75V0.25C10.1035 0.25 9.35957 0.329336 8.6414 0.480454L8.95026 1.94831ZM10.8652 1.75C11.5225 1.75 12.163 1.81844 12.7802 1.94831L13.0891 0.480455C12.3709 0.329336 11.6269 0.25 10.8652 0.25V1.75ZM12.7802 1.94831C15.8053 2.58485 18.2885 4.70192 19.4333 7.50731L20.8221 6.94055C19.4921 3.68138 16.6089 1.22111 13.0891 0.480455L12.7802 1.94831ZM12.2201 1.44237C12.4961 2.30712 13.5174 5.63305 13.9361 8.68885L15.4222 8.48526C14.9849 5.29348 13.9292 1.86407 13.6492 0.986399L12.2201 1.44237ZM13.9361 8.68885C14.0483 9.5078 14.1152 10.2943 14.1152 11H15.6152C15.6152 10.2056 15.5403 9.34758 15.4222 8.48526L13.9361 8.68885ZM19.8284 6.53956C18.7309 6.87243 16.6696 7.45704 14.543 7.84951L14.8153 9.3246C17.0208 8.91754 19.1426 8.31505 20.2638 7.97499L19.8284 6.53956ZM14.543 7.84951C13.253 8.0876 11.9649 8.25 10.8652 8.25V9.75C12.0945 9.75 13.4831 9.57046 14.8153 9.3246L14.543 7.84951ZM14.1152 11C14.1152 12.0455 13.9684 13.2621 13.7489 14.4899L15.2255 14.7539C15.4527 13.4833 15.6152 12.1698 15.6152 11H14.1152ZM13.7489 14.4899C13.2677 17.1811 12.4593 19.808 12.2201 20.5576L13.6492 21.0136C13.8946 20.2443 14.7268 17.5432 15.2255 14.7539L13.7489 14.4899ZM20.4229 12.3549C19.6733 12.5941 17.0464 13.4025 14.3552 13.8836L14.6192 15.3602C17.4084 14.8615 20.1096 14.0294 20.8788 13.7839L20.4229 12.3549ZM14.3552 13.8836C13.1274 14.1032 11.9107 14.25 10.8652 14.25V15.75C12.0351 15.75 13.3485 15.5874 14.6192 15.3602L14.3552 13.8836ZM10.8652 14.25C9.81975 14.25 8.6031 14.1032 7.3753 13.8836L7.11129 15.3602C8.38194 15.5874 9.69541 15.75 10.8652 15.75V14.25ZM7.3753 13.8836C4.6841 13.4025 2.0572 12.5941 1.3076 12.3549L0.851632 13.7839C1.62092 14.0294 4.32207 14.8615 7.11129 15.3602L7.3753 13.8836ZM6.11523 11C6.11523 12.1698 6.27782 13.4833 6.50501 14.7539L7.98159 14.4899C7.76206 13.2621 7.61523 12.0455 7.61523 11H6.11523ZM6.50501 14.7539C7.00371 17.5432 7.83586 20.2443 8.08132 21.0136L9.51034 20.5576C9.27116 19.808 8.46277 17.1811 7.98159 14.4899L6.50501 14.7539ZM8.08132 0.986398C7.80127 1.86407 6.74553 5.29348 6.30828 8.48526L7.7944 8.68885C8.21302 5.63305 9.23442 2.30712 9.51034 1.44237L8.08132 0.986398ZM6.30828 8.48526C6.19015 9.34758 6.11523 10.2056 6.11523 11H7.61523C7.61523 10.2943 7.68221 9.5078 7.7944 8.68885L6.30828 8.48526ZM10.8652 8.25C9.76558 8.25 8.47748 8.0876 7.18746 7.84951L6.91522 9.3246C8.24735 9.57046 9.63601 9.75 10.8652 9.75V8.25ZM7.18746 7.84951C5.06013 7.4569 2.9981 6.87202 1.9009 6.53921L1.4655 7.97463C2.58638 8.31462 4.70884 8.9174 6.91522 9.3246L7.18746 7.84951ZM19.7821 6.55831C19.7954 6.55142 19.8113 6.54476 19.8284 6.53956L20.2638 7.97499C20.3377 7.95255 20.4074 7.92382 20.4734 7.88955L19.7821 6.55831ZM1.21255 7.86103C1.29027 7.90856 1.37463 7.94706 1.4655 7.97463L1.9009 6.53921C1.93557 6.54972 1.96753 6.56448 1.99514 6.58136L1.21255 7.86103Z" fill="#888888"/>
</svg>
