<svg width="100%" height="100%" viewBox="0 0 19 19" fill="none" xmlns="http://www.w3.org/2000/svg">
<path fill-rule="evenodd" clip-rule="evenodd" d="M10.1817 1C10.1817 0.447715 9.73399 0 9.18171 0C8.62942 0 8.18171 0.447715 8.18171 1V1.06545C8.18171 1.61774 8.62942 2.06545 9.18171 2.06545C9.73399 2.06545 10.1817 1.61774 10.1817 1.06545V1ZM4.047 2.63289C3.65647 2.24237 3.02331 2.24237 2.63278 2.63289C2.24226 3.02342 2.24226 3.65658 2.63278 4.04711L2.73915 4.15347C3.12967 4.54399 3.76284 4.54399 4.15336 4.15347C4.54388 3.76295 4.54388 3.12978 4.15336 2.73926L4.047 2.63289ZM15.7306 4.04711C16.1212 3.65658 16.1212 3.02342 15.7306 2.63289C15.3401 2.24237 14.7069 2.24237 14.3164 2.63289L14.2101 2.73926C13.8195 3.12978 13.8195 3.76295 14.2101 4.15347C14.6006 4.54399 15.2337 4.54399 15.6243 4.15347L15.7306 4.04711ZM0.999889 8.18182C0.447605 8.18182 -0.000110626 8.62953 -0.000110626 9.18182C-0.000110626 9.7341 0.447605 10.1818 0.999889 10.1818H1.06534C1.61763 10.1818 2.06534 9.7341 2.06534 9.18182C2.06534 8.62953 1.61763 8.18182 1.06534 8.18182H0.999889ZM17.2981 8.18182C16.7458 8.18182 16.2981 8.62953 16.2981 9.18182C16.2981 9.7341 16.7458 10.1818 17.2981 10.1818H17.3635C17.9158 10.1818 18.3635 9.7341 18.3635 9.18182C18.3635 8.62953 17.9158 8.18182 17.3635 8.18182H17.2981ZM4.15336 15.6244C4.54388 15.2339 4.54388 14.6007 4.15336 14.2102C3.76284 13.8196 3.12967 13.8196 2.73915 14.2102L2.63278 14.3165C2.24226 14.7071 2.24226 15.3402 2.63278 15.7307C3.0233 16.1213 3.65647 16.1213 4.047 15.7307L4.15336 15.6244ZM15.6243 14.2102C15.2337 13.8196 14.6006 13.8196 14.2101 14.2102C13.8195 14.6007 13.8195 15.2339 14.2101 15.6244L14.3164 15.7307C14.7069 16.1213 15.3401 16.1213 15.7306 15.7307C16.1212 15.3402 16.1212 14.7071 15.7306 14.3165L15.6243 14.2102ZM10.1817 17.2982C10.1817 16.7459 9.73399 16.2982 9.18171 16.2982C8.62942 16.2982 8.18171 16.7459 8.18171 17.2982V17.3636C8.18171 17.9159 8.62942 18.3636 9.18171 18.3636C9.73399 18.3636 10.1817 17.9159 10.1817 17.3636V17.2982ZM14.4995 9.18183C14.4995 12.119 12.1185 14.5 9.18135 14.5C6.2442 14.5 3.86317 12.119 3.86317 9.18183C3.86317 6.24468 6.2442 3.86365 9.18135 3.86365C12.1185 3.86365 14.4995 6.24468 14.4995 9.18183Z"/>
</svg>
