<svg xmlns="http://www.w3.org/2000/svg" width="100%" height="100%"  viewBox="0 0 18 20" fill="none">
  <path d="M1.45584 6.84246L0.480751 6.62065L0.480519 6.62167L1.45584 6.84246ZM16.5436 6.85146L15.5683 7.07221L15.5683 7.07226L16.5436 6.85146ZM5.74991 17.6902L5.05597 18.4102L5.05723 18.4114L5.74991 17.6902ZM12.2405 17.6902L11.5479 16.9689L11.5461 16.9706L12.2405 17.6902ZM2.43093 7.06428C3.19508 3.70511 6.04856 1.99801 9.00243 2C11.9564 2.002 14.808 3.7131 15.5683 7.07221L17.5189 6.63072C16.5148 2.19388 12.7092 0.00250679 9.00378 2.20537e-06C5.29822 -0.00250256 1.49004 2.18386 0.480751 6.62065L2.43093 7.06428ZM6.44386 16.9701C4.00957 14.6241 1.51951 11.0904 2.43116 7.06325L0.480519 6.62167C-0.678344 11.7408 2.52101 15.9671 5.05597 18.4102L6.44386 16.9701ZM11.5461 16.9706C10.125 18.3422 7.87501 18.3446 6.44259 16.9689L5.05723 18.4114C7.26172 20.5286 10.7371 20.531 12.935 18.4097L11.5461 16.9706ZM15.5683 7.07226C16.4797 11.0985 13.9908 14.623 11.5479 16.9689L12.9332 18.4115C15.4775 15.9681 18.678 11.7507 17.5189 6.63067L15.5683 7.07226ZM9.00004 12.2895C11.1035 12.2895 12.8087 10.5843 12.8087 8.48082H10.8087C10.8087 9.47973 9.99896 10.2895 9.00004 10.2895V12.2895ZM5.19134 8.48082C5.19134 10.5843 6.89656 12.2895 9.00004 12.2895V10.2895C8.00113 10.2895 7.19134 9.47973 7.19134 8.48082H5.19134ZM9.00004 4.67211C6.89656 4.67211 5.19134 6.37733 5.19134 8.48082H7.19134C7.19134 7.4819 8.00113 6.67211 9.00004 6.67211V4.67211ZM12.8087 8.48082C12.8087 6.37733 11.1035 4.67211 9.00004 4.67211V6.67211C9.99896 6.67211 10.8087 7.4819 10.8087 8.48082H12.8087Z"  />
</svg>