<svg xmlns="http://www.w3.org/2000/svg" viewBox="0 0 66 66" id="mail"><path fill="#edb529" d="M65 13v40c0 .57-.24 1.09-.63 1.45-.36.34-.84.55-1.37.55H3c-.54 0-1.02-.21-1.37-.55A1.97 1.97 0 0 1 1 53V13c0-.57.24-1.09.63-1.45.35-.34.83-.55 1.37-.55h60c.53 0 1.01.21 1.37.55.39.36.63.88.63 1.45z"></path><path fill="#d89f21" d="M64.37 54.45c-.36.34-.84.55-1.37.55H3c-.54 0-1.02-.21-1.37-.55L26.8 32.56l4.92 4.12c.74.62 1.82.62 2.56 0l4.92-4.12 25.17 21.89z"></path><path fill="#fc3" d="M64.37 11.55 39.2 33.56l-4.92 4.12c-.74.62-1.82.62-2.56 0l-4.92-4.12L1.63 11.55c.35-.34.83-.55 1.37-.55h60c.53 0 1.01.21 1.37.55z"></path></svg>