<svg width="20" height="20" viewBox="0 0 20 20" fill="none" xmlns="http://www.w3.org/2000/svg">
<path fill-rule="evenodd" clip-rule="evenodd" d="M18.5 6.88285C18.5 5.24481 18.091 4.15403 17.4044 3.46746C16.7179 2.78089 15.6271 2.37189 13.989 2.37189H6.97442C5.33637 2.37189 4.24559 2.78089 3.55902 3.46746C2.87246 4.15403 2.46345 5.24481 2.46345 6.88285V11.267C2.46345 12.905 2.87246 13.9958 3.55902 14.6824C4.24559 15.3689 5.33637 15.778 6.97442 15.778H7.41283C7.92258 15.778 8.40515 16.0219 8.71141 16.4249L8.71429 16.4287L10.0295 18.1823C10.1981 18.407 10.369 18.461 10.4817 18.461C10.5944 18.461 10.7654 18.407 10.9339 18.1823L12.2466 16.4321C12.4096 16.2104 12.6349 16.056 12.8306 15.959C13.029 15.8607 13.2844 15.778 13.5506 15.778H13.989C15.7294 15.778 16.7891 15.5474 17.4409 14.9771C18.0679 14.4284 18.5 13.3944 18.5 11.267V6.88285ZM13.989 0.871887C15.8583 0.871887 17.398 1.33971 18.4651 2.4068C19.5322 3.47389 20 5.01359 20 6.88285V11.267C20 13.5237 19.5553 15.1202 18.4286 16.106C17.3268 17.0701 15.756 17.278 13.989 17.278H13.5634L13.5566 17.2796C13.5412 17.2838 13.52 17.2915 13.4968 17.3029C13.4736 17.3145 13.4559 17.3261 13.4454 17.3343L13.4443 17.3351L12.1339 19.0823C11.7237 19.6293 11.1319 19.961 10.4817 19.961C9.83159 19.961 9.23972 19.6293 8.82953 19.0823L7.51717 17.3325L7.51638 17.3315C7.48939 17.2967 7.44639 17.278 7.41283 17.278H6.97442C5.10515 17.278 3.56545 16.8101 2.49836 15.743C1.43128 14.676 0.963453 13.1363 0.963453 11.267V6.88285C0.963453 5.01359 1.43128 3.47389 2.49836 2.4068C3.56545 1.33971 5.10515 0.871887 6.97442 0.871887H13.989ZM6.97747 8.51333C7.52976 8.51333 7.97747 8.96104 7.97747 9.51333C7.97747 10.0656 7.52976 10.5133 6.97747 10.5133H6.9696C6.41731 10.5133 5.9696 10.0656 5.9696 9.51333C5.9696 8.96104 6.41731 8.51333 6.9696 8.51333H6.97747ZM11.4853 9.51333C11.4853 8.96105 11.0376 8.51333 10.4853 8.51333H10.4775C9.92519 8.51333 9.47747 8.96105 9.47747 9.51333C9.47747 10.0656 9.92519 10.5133 10.4775 10.5133H10.4853C11.0376 10.5133 11.4853 10.0656 11.4853 9.51333ZM13.9941 8.51333C14.5464 8.51333 14.9941 8.96105 14.9941 9.51333C14.9941 10.0656 14.5464 10.5133 13.9941 10.5133H13.9863C13.434 10.5133 12.9863 10.0656 12.9863 9.51333C12.9863 8.96105 13.434 8.51333 13.9863 8.51333H13.9941Z" fill="#868B90"/>
</svg>
