<svg width="24" height="29" viewBox="0 0 24 29" fill="none" xmlns="http://www.w3.org/2000/svg">
<path fill-rule="evenodd" clip-rule="evenodd" d="M12.4118 0C11.0691 0 9.87446 0.729735 9.25524 1.87582C5.92167 3.14749 3.54537 6.37932 3.54537 10.1523V13.943C3.54537 14.5595 3.2568 15.6088 2.942 16.1335L1.43359 18.6388C0.830222 19.6356 0.699055 20.7506 1.07944 21.7605C1.4467 22.7705 2.28617 23.5444 3.38797 23.9248C4.80455 24.3991 6.25873 24.7575 7.73212 25.0001C7.97257 25.7208 8.37843 26.3845 8.92243 26.9285C9.8406 27.8467 11.0998 28.3713 12.3983 28.3713C14.5732 28.3713 16.4198 26.9575 17.0686 24.9994C18.5389 24.7569 19.9883 24.3987 21.3971 23.9248C22.4333 23.5838 23.2597 22.7968 23.6401 21.7605C24.0205 20.7243 23.9155 19.5832 23.3515 18.6388L21.8562 16.1466C21.5414 15.6088 21.2529 14.5464 21.2529 13.943V10.1523C21.2529 6.39217 18.8927 3.1695 15.577 1.88888C14.9603 0.725936 13.7608 0 12.4118 0ZM14.7071 25.2883C13.9396 25.3499 13.1694 25.3807 12.3991 25.3807C11.6286 25.3807 10.8581 25.3499 10.0902 25.2882C10.1593 25.3754 10.2336 25.459 10.3128 25.5381C10.8637 26.089 11.6245 26.4038 12.3983 26.4038C13.3318 26.4038 14.1658 25.9675 14.7071 25.2883ZM5.51287 10.1523C5.51287 6.6914 8.0754 3.82771 11.3926 3.33948C12.026 3.25613 12.6797 3.25324 13.3478 3.33084C16.7025 3.79289 19.2854 6.67035 19.2854 10.1523V13.9299C19.2854 14.8874 19.6657 16.2909 20.1642 17.1435L21.6726 19.6488C21.9349 20.0816 21.9743 20.5932 21.8038 21.0654C21.6332 21.5376 21.266 21.8917 20.7938 22.0491C15.311 23.8854 9.50033 23.8854 4.01757 22.0491C3.47979 21.8655 3.08629 21.5244 2.92889 21.0785C2.75837 20.6456 2.83707 20.1341 3.12564 19.6488L4.63405 17.1435C5.11937 16.3171 5.51287 14.9005 5.51287 13.943V10.1523Z" fill="#868B90"/>
</svg>
