<svg xmlns="http://www.w3.org/2000/svg" width="100%" height="100%" viewBox="0 0 26 26" fill="none">
<g opacity="0.3">
<path d="M15.1927 10.8073L10.8073 15.1927C10.244 14.6293 9.89734 13.858 9.89734 13C9.89734 11.284 11.284 9.89734 13 9.89734C13.858 9.89734 14.6293 10.244 15.1927 10.8073Z"  stroke-width="1.5" stroke-linecap="round" stroke-linejoin="round"/>
<path d="M18.044 7.60064C16.5273 6.45664 14.794 5.83264 13 5.83264C9.94065 5.83264 7.08932 7.63531 5.10465 10.7553C4.32465 11.9773 4.32465 14.0313 5.10465 15.2533C5.78932 16.328 6.58665 17.2553 7.45332 18.0006"  stroke-width="1.5" stroke-linecap="round" stroke-linejoin="round"/>
<path d="M9.89734 19.526C10.8853 19.942 11.934 20.1673 13 20.1673C16.0593 20.1673 18.9107 18.3647 20.8953 15.2447C21.6753 14.0227 21.6753 11.9687 20.8953 10.7467C20.6093 10.296 20.2973 9.87132 19.9767 9.47266"  stroke-width="1.5" stroke-linecap="round" stroke-linejoin="round"/>
<path d="M16.042 13.6067C15.8166 14.8287 14.82 15.8254 13.598 16.0507"  stroke-width="1.5" stroke-linecap="round" stroke-linejoin="round"/>
<path d="M10.8073 15.1926L4.33331 21.6666"  stroke-width="1.5" stroke-linecap="round" stroke-linejoin="round"/>
<path d="M21.6666 4.33325L15.1926 10.8073"  stroke-width="1.5" stroke-linecap="round" stroke-linejoin="round"/>
</g>
</svg>