<svg width="100%" height="100%"  viewBox="0 0 16 23" fill="none" xmlns="http://www.w3.org/2000/svg">
<path d="M8.03042 10.0863C7.92726 10.0761 7.80347 10.0761 7.69 10.0863C5.23484 10.0044 3.28516 8.00683 3.28516 5.54829C3.28516 3.03854 5.32768 1 7.86537 1C10.3927 1 12.4456 3.03854 12.4456 5.54829C12.4353 8.00683 10.4856 10.0044 8.03042 10.0863Z"  stroke-width="1.5" stroke-linecap="round" stroke-linejoin="round"/>
<path d="M2.87232 13.8663C0.375895 15.5258 0.375895 18.2302 2.87232 19.8795C5.70916 21.7644 10.3616 21.7644 13.1984 19.8795C15.6948 18.22 15.6948 15.5156 13.1984 13.8663C10.3719 11.9917 5.71947 11.9917 2.87232 13.8663Z"  stroke-width="1.5" stroke-linecap="round" stroke-linejoin="round"/>
</svg>
