<svg width="22" height="22" viewBox="0 0 22 22" fill="none" xmlns="http://www.w3.org/2000/svg">
<path fill-rule="evenodd" clip-rule="evenodd" d="M20.5 10.75C20.5 5.64137 16.3586 1.5 11.25 1.5C6.14137 1.5 2 5.64137 2 10.75C2 13.0237 2.82034 15.1058 4.18119 16.7164C4.5435 16.0371 5.11916 15.4274 5.86153 14.9278L5.86315 14.9267C7.37286 13.9166 9.32687 13.4351 11.2427 13.4351C13.1588 13.4351 15.1166 13.9166 16.6352 14.9253L16.6352 14.9253L16.6389 14.9278C17.3812 15.4273 17.9568 16.0369 18.3191 16.7161C19.6798 15.1055 20.5 13.0235 20.5 10.75ZM8.7461 19.6571C9.54246 19.8805 10.3823 20 11.25 20C12.2198 20 13.1548 19.8508 14.0331 19.574C15.1949 19.2072 16.2569 18.6163 17.1719 17.8501C17.0041 17.2859 16.5736 16.6923 15.8034 16.1736C14.5821 15.363 12.9308 14.9351 11.2427 14.9351C9.55398 14.9351 7.90836 15.3634 6.69814 16.1728C5.92728 16.6918 5.49645 17.2857 5.32861 17.8501C6.31632 18.6772 7.47532 19.3 8.7461 19.6571ZM9.54622 21.3657C10.1011 21.4541 10.6702 21.5 11.25 21.5C17.1871 21.5 22 16.6871 22 10.75C22 4.81294 17.1871 0 11.25 0C5.31294 0 0.5 4.81294 0.5 10.75C0.5 16.0408 4.32213 20.4388 9.35585 21.3337C9.41912 21.3449 9.48258 21.3556 9.54622 21.3657ZM11.2503 5.72998C12.6546 5.72998 13.7803 6.8627 13.7803 8.25998C13.7803 9.60876 12.7266 10.7085 11.3916 10.7784C11.2996 10.7709 11.2016 10.7702 11.1063 10.7782C9.77704 10.7072 8.72901 9.61176 8.72027 8.25786C8.72142 6.86305 9.85519 5.72998 11.2503 5.72998ZM15.2803 8.25998C15.2803 6.03726 13.486 4.22998 11.2503 4.22998C9.02606 4.22998 7.22027 6.03577 7.22027 8.25998V8.26422H7.22029C7.23254 10.4326 8.93809 12.2057 11.1047 12.2795C11.1487 12.281 11.1928 12.2787 11.2363 12.2724C11.232 12.2731 11.2312 12.273 11.234 12.2728C11.2365 12.2727 11.2408 12.2725 11.2465 12.2725C11.2588 12.2725 11.2702 12.2733 11.2772 12.2742C11.3166 12.2791 11.3562 12.2809 11.3958 12.2795C13.5587 12.2058 15.2803 10.4354 15.2803 8.25998Z" fill="#868B90"/>
</svg>
