<svg width="100%" height="100%" viewBox="0 0 40 40" fill="none" xmlns="http://www.w3.org/2000/svg">
<rect width="100%" height="100%" rx="20" />
<path fill-rule="evenodd" clip-rule="evenodd" d="M18.2718 21.625C18.2718 22.3767 18.9419 23 19.75 23C20.5581 23 21.2282 22.395 21.2282 21.625V21.2401C21.2282 20.7267 21.4648 20.415 22.2334 19.9384C22.8445 19.5534 24.5 18.5084 24.5 16.4184C24.5 13.9801 22.3714 12 19.75 12C17.1286 12 15 13.9801 15 16.4184C15 17.1701 15.6701 17.7934 16.4782 17.7934C17.2863 17.7934 17.9565 17.1701 17.9565 16.4184C17.9565 15.5017 18.7645 14.75 19.75 14.75C20.7355 14.75 21.5435 15.5017 21.5435 16.4184C21.5435 16.8951 21.307 17.2067 20.5778 17.665C20.5703 17.6698 20.5627 17.6747 20.5549 17.6797C19.9076 18.0933 18.2718 19.1386 18.2718 21.2401V21.625ZM18 26.5C18 27.32 18.66 28 19.5 28C20.34 28 21 27.32 21 26.5C21 25.68 20.32 25 19.5 25C18.68 25 18 25.68 18 26.5Z" />
</svg>
