<svg width="24" height="24" viewBox="0 0 24 24" fill="none" xmlns="http://www.w3.org/2000/svg">
<path fill-rule="evenodd" clip-rule="evenodd" d="M14.0297 4.28802C17.655 4.42148 19.5738 6.4664 19.5738 10.2103V14.3522C21.3933 13.9027 22.2495 12.5648 22.2495 10.2103V5.92924C22.2495 2.94322 20.9116 1.60539 17.9256 1.60539H11.076C8.7214 1.60539 7.39428 2.46159 6.93407 4.28102H13.6441C13.7747 4.28102 13.9033 4.28335 14.0297 4.28802ZM5.28203 4.40633C5.64346 2.26121 7.00129 0 11.0866 0H17.9363C21.8107 0 23.8655 2.05491 23.8655 5.92924V10.2103C23.8655 14.3065 21.5923 15.6518 19.4421 16.0153C19.0881 18.1431 17.7441 20.4205 13.6441 20.4205H13.216L11.8889 22.1544C11.4715 22.7216 10.8614 23.0427 10.2193 23.0427C9.57713 23.0427 8.96709 22.7216 8.54969 22.1544L7.2654 20.4419C7.2654 20.4475 7.25078 20.4414 7.23378 20.4343C7.21823 20.4278 7.20069 20.4205 7.19047 20.4205H6.79448C3.13419 20.4205 0.865234 19.4252 0.865234 14.4913V10.2103C0.865234 6.11827 3.13381 4.77149 5.28203 4.40633ZM6.01665 5.92503C3.58333 6.15891 2.47062 7.51802 2.47062 10.2103V14.4913C2.47062 18.1623 3.60511 18.8151 6.79448 18.8151H7.22258C7.70419 18.8151 8.25001 19.0827 8.54969 19.468L9.83401 21.1911C10.0695 21.5122 10.3691 21.5122 10.6046 21.1911L11.8889 19.4787C12.1993 19.0613 12.6916 18.8151 13.216 18.8151H13.6441C16.3626 18.8151 17.7218 17.67 17.9252 15.2298C17.9573 14.9729 17.968 14.7375 17.968 14.4913V10.2103C17.968 7.23094 16.6361 5.89242 13.6642 5.88643C13.6612 5.88643 13.6583 5.88642 13.6553 5.88642H6.80561C6.55945 5.88642 6.32402 5.89713 6.09926 5.91853C6.07183 5.92227 6.04424 5.92442 6.01665 5.92503ZM10.2195 13.8492C9.6202 13.8492 9.14929 13.3675 9.14929 12.7789C9.14929 12.1903 9.63091 11.7086 10.2195 11.7086C10.8082 11.7086 11.2898 12.1903 11.2898 12.7789C11.2898 13.3675 10.8189 13.8492 10.2195 13.8492ZM12.5733 12.7789C12.5733 13.3675 13.0442 13.8492 13.6435 13.8492C14.2322 13.8492 14.7138 13.3675 14.7138 12.7789C14.7138 12.1903 14.2322 11.7086 13.6435 11.7086C13.0549 11.7086 12.5733 12.1903 12.5733 12.7789ZM6.80463 13.8492C6.20529 13.8492 5.73438 13.3675 5.73438 12.7789C5.73438 12.1903 6.21599 11.7086 6.80463 11.7086C7.39328 11.7086 7.87489 12.1903 7.87489 12.7789C7.87489 13.3675 7.39328 13.8492 6.80463 13.8492Z" fill="#868B90"/>
</svg>
