<svg width="20" height="21" viewBox="0 0 20 21" fill="none" xmlns="http://www.w3.org/2000/svg">
<path fill-rule="evenodd" clip-rule="evenodd" d="M2.18293 7.19798C1.95751 7.57688 2.08218 8.0893 2.4884 8.33331L2.66163 8.4336L2.66316 8.43448C3.54739 8.94185 4.1569 9.71561 4.1569 10.643C4.1569 11.5697 3.54805 12.3457 2.66474 12.8576L2.66441 12.8578L2.48841 12.9597C2.08218 13.2037 1.95751 13.7162 2.18293 14.0951L2.18302 14.095L2.18933 14.106L3.12952 15.749L3.12976 15.7494C3.41631 16.2509 4.06613 16.4238 4.56272 16.1371C5.44622 15.6252 6.42193 15.4836 7.2252 15.9465C8.02853 16.4095 8.39491 17.3245 8.39491 18.3438C8.39491 18.9198 8.86893 19.3982 9.44933 19.3982L11.1208 19.3982C11.6968 19.3982 12.1752 18.9242 12.1752 18.3438C12.1752 17.3245 12.5416 16.4095 13.3449 15.9465C14.1475 15.484 15.1222 15.6249 16.0051 16.1358C16.5134 16.4254 17.1545 16.2497 17.4404 15.7494L17.4406 15.749L18.3808 14.106L18.3807 14.106L18.3872 14.0951C18.6126 13.7162 18.4879 13.2037 18.0817 12.9597L17.9085 12.8594L17.907 12.8586C17.0228 12.3512 16.4132 11.5775 16.4132 10.6501C16.4132 9.72337 17.0221 8.94738 17.9054 8.43539L17.9057 8.4352L18.0817 8.33331C18.4879 8.08931 18.6126 7.57688 18.3872 7.19798L18.3871 7.19803L18.3808 7.18702L17.4406 5.54405L17.4404 5.54364C17.1538 5.04222 16.5041 4.86932 16.0075 5.15586C15.124 5.66785 14.1482 5.80944 13.3449 5.34651C12.5416 4.88358 12.1752 3.96852 12.1752 2.94925C12.1752 2.36885 11.6968 1.89484 11.1208 1.89484L9.44933 1.89484C8.87329 1.89484 8.39491 2.36885 8.39491 2.94925C8.39491 3.96852 8.02852 4.88358 7.2252 5.34651C6.42186 5.80945 5.44607 5.66784 4.56252 5.15583C4.06596 4.86934 3.41627 5.04223 3.12976 5.54364L3.12952 5.54405L2.18933 7.18702L2.18942 7.18707L2.18293 7.19798ZM4.56252 5.15583C4.56241 5.15577 4.56229 5.1557 4.56218 5.15563L4.93824 4.50683L4.56307 5.15615C4.56289 5.15604 4.5627 5.15594 4.56252 5.15583ZM1.72472 9.62436C0.634967 8.97603 0.228578 7.5567 0.890278 6.43702L1.82739 4.79943L1.82748 4.79928L1.82762 4.79903C2.52879 3.57249 4.10081 3.15669 5.31349 3.85735L5.31438 3.85787C5.92176 4.20992 6.29913 4.14894 6.47625 4.04687C6.65349 3.94473 6.89491 3.64894 6.89491 2.94925C6.89491 1.5353 8.05 0.394836 9.44933 0.394836L11.1208 0.394836C12.5201 0.394836 13.6752 1.5353 13.6752 2.94925C13.6752 3.64894 13.9166 3.94473 14.0939 4.04687C14.271 4.14894 14.6484 4.20992 15.2557 3.85787L15.2566 3.85735C16.4694 3.15661 18.0417 3.57258 18.7427 4.79943L19.6798 6.437C20.3415 7.55668 19.9352 8.97602 18.8454 9.62436L18.8454 9.62441L18.8377 9.62888L18.6576 9.73316C18.0499 10.0854 17.9132 10.4443 17.9132 10.6501C17.9132 10.8547 18.0485 11.2107 18.6545 11.5581L18.6573 11.5597L18.8377 11.6642L18.8377 11.6641L18.8454 11.6687C19.9352 12.317 20.3415 13.7364 19.6798 14.8561L18.7427 16.4936C18.0412 17.7213 16.4797 18.1346 15.2597 17.4375L15.2597 17.4375L15.2557 17.4352C14.6484 17.0831 14.271 17.1441 14.0939 17.2462C13.9166 17.3483 13.6752 17.6441 13.6752 18.3438C13.6752 19.7577 12.5201 20.8982 11.1208 20.8982L9.44933 20.8982C8.03537 20.8982 6.89491 19.7431 6.89491 18.3438C6.89491 17.6441 6.65349 17.3483 6.47625 17.2462C6.29913 17.1441 5.92176 17.0831 5.31438 17.4352L5.31349 17.4357C4.10081 18.1364 2.5288 17.7206 1.82762 16.494L1.8276 16.494L1.82739 16.4936L0.890289 14.856C0.228575 13.7364 0.634962 12.317 1.72472 11.6687L1.7247 11.6686L1.73241 11.6642L1.91253 11.5599L1.91286 11.5597C2.52028 11.2075 2.6569 10.8487 2.6569 10.643C2.6569 10.4383 2.52161 10.0823 1.91564 9.73495L1.91286 9.73335L1.73242 9.62888L1.73239 9.62893L1.72472 9.62436ZM10.2853 8.54272C9.12602 8.54272 8.18622 9.48252 8.18622 10.6418C8.18622 11.8011 9.12602 12.7409 10.2853 12.7409C11.4446 12.7409 12.3844 11.8011 12.3844 10.6418C12.3844 9.48251 11.4446 8.54272 10.2853 8.54272ZM6.68622 10.6418C6.68622 8.65409 8.29759 7.04272 10.2853 7.04272C12.273 7.04272 13.8844 8.65409 13.8844 10.6418C13.8844 12.6295 12.273 14.2409 10.2853 14.2409C8.29759 14.2409 6.68622 12.6295 6.68622 10.6418Z" fill="#868B90"/>
</svg>
