<svg width="100%" height="100%" viewBox="0 0 20 20" fill="none" xmlns="http://www.w3.org/2000/svg">
<path d="M13.3161 11.3419C13.1138 10.9381 13 10.4824 13 10C13 9.51763 13.1138 9.06185 13.3161 8.65807M13.3161 11.3419C13.8087 12.3251 14.8255 13 16 13C17.6569 13 19 11.6569 19 10C19 8.34315 17.6569 7 16 7C14.8255 7 13.8087 7.67492 13.3161 8.65807M13.3161 11.3419L6.68387 14.6581M13.3161 8.65807L6.68387 5.34193M6.68387 5.34193C6.19134 6.32508 5.17449 7 4 7C2.34315 7 1 5.65685 1 4C1 2.34315 2.34315 1 4 1C5.65685 1 7 2.34315 7 4C7 4.48237 6.88616 4.93815 6.68387 5.34193ZM6.68387 14.6581C6.88616 15.0619 7 15.5176 7 16C7 17.6569 5.65685 19 4 19C2.34315 19 1 17.6569 1 16C1 14.3431 2.34315 13 4 13C5.17449 13 6.19134 13.6749 6.68387 14.6581Z" stroke="#868B90" stroke-width="2" stroke-linecap="round" stroke-linejoin="round"/>
</svg>
