<svg width="100%" height="100%"  viewBox="0 0 24 25" fill="none" xmlns="http://www.w3.org/2000/svg">
<path fill-rule="evenodd" clip-rule="evenodd" d="M13.4326 1C13.4326 0.447715 12.9849 0 12.4326 0C11.8804 0 11.4326 0.447715 11.4326 1V10.7546C11.4326 11.3069 11.8804 11.7546 12.4326 11.7546C12.9849 11.7546 13.4326 11.3069 13.4326 10.7546V1ZM8.01697 4.71594C8.50691 4.46103 8.69745 3.85722 8.44255 3.36728C8.18765 2.87733 7.58384 2.68679 7.09389 2.94169C4.79637 4.13702 2.96645 6.06877 1.89717 8.42759C0.827899 10.7864 0.581142 13.4358 1.19642 15.9515C1.81169 18.4673 3.25341 20.7037 5.29067 22.3028C7.32793 23.9018 9.84287 24.7709 12.4327 24.7709C15.0226 24.7709 17.5375 23.9018 19.5748 22.3028C21.6121 20.7037 23.0538 18.4673 23.6691 15.9516C24.2843 13.4358 24.0376 10.7864 22.9683 8.42759C21.899 6.06877 20.0691 4.13702 17.7716 2.94169C17.2816 2.68679 16.6778 2.87733 16.4229 3.36728C16.168 3.85722 16.3586 4.46103 16.8485 4.71594C18.7488 5.70459 20.2623 7.30235 21.1467 9.25333C22.0311 11.2043 22.2352 13.3957 21.7263 15.4764C21.2174 17.5572 20.025 19.4069 18.34 20.7295C16.6549 22.0521 14.5748 22.7709 12.4327 22.7709C10.2907 22.7709 8.21054 22.0521 6.52552 20.7295C4.8405 19.4069 3.64805 17.5572 3.13916 15.4764C2.63026 13.3957 2.83436 11.2043 3.71875 9.25333C4.60315 7.30235 6.11669 5.70459 8.01697 4.71594Z" fill="#868B90"/>
</svg>
