<svg width="24" height="24" viewBox="0 0 24 24" fill="none" xmlns="http://www.w3.org/2000/svg">
<path fill-rule="evenodd" clip-rule="evenodd" d="M5.36538 12.7072C4.62065 12.7072 3.9149 12.5406 3.28829 12.2255V15.9779C3.28829 20.2883 4.74582 21.9451 8.80176 22.089V20.1657C8.80176 17.8453 10.0725 16.5746 12.3929 16.5746C14.7134 16.5746 15.9841 17.8453 15.9841 20.1657V22.0887C20.0321 21.9423 21.4872 20.2847 21.4872 15.9779V12.2023C20.8493 12.5324 20.1274 12.7072 19.3646 12.7072C17.9795 12.7072 16.687 12.0161 15.8463 10.9619C15.7502 11.0995 15.6449 11.2321 15.5308 11.3591C14.7132 12.232 13.6082 12.7072 12.3927 12.7072C11.1772 12.7072 10.0723 12.232 9.28774 11.3591C9.15705 11.2137 9.03802 11.0609 8.93094 10.9017C8.09191 11.9897 6.77677 12.7072 5.36538 12.7072ZM0.890249 7.76795C0.777356 8.87806 1.04893 9.94012 1.65724 10.8109C1.64002 10.8768 1.63084 10.9457 1.63084 11.0166V15.9779C1.63084 21.4254 3.95128 23.7569 9.40984 23.7569H15.3767C20.8242 23.7569 23.1557 21.4254 23.1446 15.9779V11.0166C23.1446 10.929 23.1306 10.8443 23.1047 10.7646C23.6905 9.90263 23.9507 8.85848 23.8398 7.76795L23.5304 4.69613C23.0773 1.35912 21.5635 0 18.3149 0H14.9894H14.9447H9.82918L9.80704 0.000292098L9.78527 0H6.41511C3.16649 0 1.65268 1.35912 1.18859 4.72928L0.890249 7.76795ZM6.41511 1.65746C3.99522 1.65746 3.18859 2.38674 2.835 4.91712L2.53666 7.9337C2.44826 8.77347 2.7024 9.558 3.23279 10.1436C3.76318 10.7293 4.51456 11.0497 5.36538 11.0497C6.75765 11.0497 8.05046 9.87844 8.18306 8.49723L8.86814 1.65746H6.41511ZM14.892 8.68677C14.8691 9.27168 14.652 9.81691 14.2712 10.2431C13.3319 11.2818 11.4535 11.2818 10.5143 10.2431C10.0502 9.7348 9.82918 9.03867 9.90652 8.29834L10.5695 1.65746H14.1899L14.8895 8.66298L14.892 8.68677ZM16.5795 8.71646C16.8277 10.0001 18.0467 11.0497 19.3646 11.0497C20.2044 11.0497 20.9558 10.7293 21.4972 10.1436C22.0276 9.558 22.2707 8.77347 22.1934 7.9337L21.884 4.89502C21.5414 2.39779 20.7348 1.65746 18.3149 1.65746H15.909L16.5585 8.13259C16.5781 8.32951 16.5851 8.5244 16.5795 8.71646ZM14.3266 20.1657V22.0994H10.4592V20.1657C10.4592 18.7735 11.0007 18.232 12.3929 18.232C13.7852 18.232 14.3266 18.7735 14.3266 20.1657Z" fill="#868B90"/>
</svg>
