<svg width="23" height="20" viewBox="0 0 23 20" fill="none" xmlns="http://www.w3.org/2000/svg">
<path fill-rule="evenodd" clip-rule="evenodd" d="M21.5 5.97371C21.5 4.28836 21.0222 3.20797 20.3031 2.54023C19.574 1.86314 18.4784 1.5 17.0263 1.5H6.57886C5.12672 1.5 4.03117 1.86314 3.30201 2.54023C2.5829 3.20797 2.10515 4.28836 2.10515 5.97371V13.2869C2.10515 14.9723 2.5829 16.0527 3.30201 16.7204C4.03117 17.3975 5.12672 17.7606 6.57886 17.7606H17.0263C18.4784 17.7606 19.574 17.3975 20.3031 16.7204C21.0222 16.0527 21.5 14.9723 21.5 13.2869V5.97371ZM17.0263 0C18.7084 0 20.2247 0.420412 21.3238 1.44104C22.433 2.471 23 4.00246 23 5.97371V13.2869C23 15.2582 22.433 16.7896 21.3238 17.8196C20.2247 18.8402 18.7084 19.2606 17.0263 19.2606H6.57886C4.89678 19.2606 3.38046 18.8402 2.28133 17.8196C1.17213 16.7896 0.605148 15.2582 0.605148 13.2869V5.97371C0.605148 4.00246 1.17213 2.471 2.28133 1.44104C3.38046 0.420412 4.89678 0 6.57886 0H17.0263ZM6.11005 7.08209C5.7864 6.82359 5.73359 6.35166 5.9921 6.02801C6.2506 5.70437 6.72253 5.65156 7.04618 5.91006L10.3153 8.52117L10.3158 8.52155C11.1183 9.15998 12.4953 9.16008 13.298 8.52185L16.5566 5.91079C16.8798 5.65178 17.3518 5.70385 17.6108 6.0271C17.8698 6.35034 17.8178 6.82235 17.4945 7.08136L14.2349 9.69322L14.2331 9.6947C12.8836 10.769 10.7305 10.769 9.38103 9.6947L9.3801 9.69395L6.11005 7.08209Z" fill="#868B90"/>
</svg>
