<svg  viewBox="0 0 21 22" fill="none" xmlns="http://www.w3.org/2000/svg">
<path fill-rule="evenodd" clip-rule="evenodd" d="M19.5566 3.77092C19.5566 1.97112 18.0991 0.5 16.2857 0.5C14.4742 0.5 13.0148 1.95946 13.0148 3.77092C13.0148 5.54289 14.4095 6.9779 16.1609 7.04135C16.2009 7.04281 16.2411 7.04104 16.2808 7.03608C16.3206 7.04104 16.3607 7.04281 16.4008 7.04135C18.1531 6.97786 19.544 5.54315 19.5566 3.77628L19.5566 3.77092ZM18.0566 3.76825C18.0485 4.71799 17.3181 5.47932 16.399 5.53966C16.3208 5.5328 16.2408 5.5328 16.1626 5.53966C15.242 5.47927 14.5148 4.71691 14.5148 3.77092C14.5148 2.78788 15.3027 2 16.2857 2C17.266 2 18.0552 2.79431 18.0566 3.76825ZM6.47772 3.77092C6.47772 2.78788 5.68984 2 4.7068 2C3.72655 2 2.93733 2.7943 2.93589 3.76825C2.94403 4.71799 3.67445 5.47932 4.59351 5.53966C4.67169 5.5328 4.7517 5.5328 4.82988 5.53966C5.75057 5.47927 6.47772 4.71691 6.47772 3.77092ZM4.7068 0.5C6.51827 0.5 7.97772 1.95946 7.97772 3.77092C7.97772 5.54289 6.58307 6.9779 4.83167 7.04135C4.79158 7.04281 4.75146 7.04104 4.71169 7.03608C4.67192 7.04104 4.6318 7.04281 4.59171 7.04135C2.83937 6.97786 1.44852 5.54315 1.43591 3.77628L1.43589 3.77628V3.77092C1.43589 1.97112 2.89344 0.5 4.7068 0.5ZM1.36053 8.73506C2.59627 7.91508 4.29477 7.66666 5.78371 7.9275C6.19171 7.99897 6.46452 8.38766 6.39305 8.79566C6.32157 9.20366 5.93288 9.47647 5.52488 9.405C4.33688 9.19688 3.04582 9.41731 2.19056 9.98448C1.65862 10.3393 1.49192 10.7328 1.49192 11.0308C1.49192 11.329 1.65875 11.7227 2.19123 12.0776L2.19258 12.0785C3.03728 12.6443 4.30921 12.8656 5.50081 12.6655C5.9093 12.597 6.29605 12.8725 6.36463 13.281C6.43321 13.6895 6.15765 14.0763 5.74916 14.1448C4.26404 14.3942 2.58581 14.1467 1.35918 13.3257C0.513935 12.7622 -0.00808334 11.9443 -0.00808334 11.0308C-0.00808334 10.1174 0.513935 9.29945 1.35917 8.73596L1.36053 8.73506ZM15.467 9.405C16.655 9.19688 17.9461 9.41731 18.8013 9.98447C19.3333 10.3393 19.5 10.7328 19.5 11.0308C19.5 11.329 19.3332 11.7227 18.8007 12.0776L18.7993 12.0785C17.9546 12.6443 16.6827 12.8656 15.4911 12.6655C15.0826 12.597 14.6959 12.8725 14.6273 13.281C14.5587 13.6895 14.8343 14.0763 15.2428 14.1448C16.7282 14.3942 18.4067 14.1466 19.6334 13.3253C20.4783 12.7618 21 11.9441 21 11.0308C21 10.1174 20.478 9.29945 19.6327 8.73596L19.6314 8.73506C18.3956 7.91508 16.6972 7.66666 15.2082 7.9275C14.8002 7.99897 14.5274 8.38766 14.5989 8.79566C14.6704 9.20366 15.059 9.47647 15.467 9.405ZM10.5689 9.29893C11.552 9.29893 12.3398 10.0868 12.3398 11.0699C12.3398 12.0159 11.6127 12.7782 10.692 12.8386C10.6127 12.8316 10.5315 12.8317 10.4522 12.8389C9.5409 12.786 8.80619 12.0222 8.798 11.0672C8.79945 10.0932 9.58867 9.29893 10.5689 9.29893ZM13.8398 11.0699C13.8398 9.25839 12.3804 7.79893 10.5689 7.79893C8.75557 7.79893 7.298 9.27005 7.298 11.0699V11.0752H7.29802C7.31061 12.8372 8.69785 14.2894 10.4593 14.3405C10.4975 14.3416 10.5358 14.3398 10.5738 14.335C10.6136 14.34 10.6537 14.3417 10.6938 14.3403C12.4452 14.2768 13.8398 12.8418 13.8398 11.0699ZM7.22224 16.0446C8.14899 15.4268 9.33364 15.1419 10.478 15.1419C11.6225 15.1419 12.8085 15.4269 13.7392 16.0434L13.741 16.0446C14.5863 16.6081 15.1083 17.426 15.1083 18.3395C15.1083 19.2527 14.5865 20.0705 13.7416 20.634C12.8109 21.2563 11.6266 21.5445 10.4816 21.5445C9.33667 21.5445 8.1523 21.2563 7.22161 20.634C6.37674 20.0705 5.85498 19.2527 5.85498 18.3395C5.85498 17.426 6.377 16.6081 7.22224 16.0446ZM13.6083 18.3395C13.6083 18.0415 13.4416 17.6481 12.9099 17.2933C12.2772 16.8745 11.3971 16.6419 10.478 16.6419C9.55816 16.6419 8.68112 16.8748 8.05429 17.2927C7.52182 17.6477 7.35498 18.0414 7.35498 18.3395C7.35498 18.6376 7.52182 19.0313 8.05429 19.3863L8.05519 19.3869C8.68782 19.81 9.56502 20.0445 10.4816 20.0445C11.3982 20.0445 12.2754 19.81 12.9081 19.3869L12.909 19.3863C13.4414 19.0313 13.6083 18.6376 13.6083 18.3395Z" />
</svg>
