<svg width="24" height="24" viewBox="0 0 24 24" fill="none" xmlns="http://www.w3.org/2000/svg">
<path d="M23 12C23 5.92487 18.0751 1 12 1C5.92487 1 1 5.92487 1 12C1 18.0751 5.92487 23 12 23C18.0751 23 23 18.0751 23 12Z" stroke="#868B90" stroke-width="2"/>
<path d="M9.24788 9.25001L8.98699 8.46735L8.59566 8.59779L8.46521 8.98912L9.24788 9.25001ZM14.7498 14.75L15.0106 15.5327L15.4021 15.4022L15.5326 15.0107L14.7498 14.75ZM6.49788 17.5L5.71521 17.2391C5.6164 17.5355 5.69355 17.8624 5.9145 18.0833C6.13544 18.3043 6.46226 18.3814 6.75871 18.2827L6.49788 17.5ZM17.4978 6.50001L18.2806 6.76073C18.3794 6.46429 18.3021 6.13751 18.0812 5.91658C17.8602 5.69567 17.5335 5.61854 17.237 5.71735L17.4978 6.50001ZM17.237 5.71735L8.98699 8.46735L9.50877 10.0327L17.7587 7.28267L17.237 5.71735ZM16.7152 6.23929L13.967 14.4893L15.5326 15.0107L18.2806 6.76073L16.7152 6.23929ZM6.75871 18.2827L15.0106 15.5327L14.489 13.9674L6.23705 16.7174L6.75871 18.2827ZM7.28054 17.7609L10.0306 9.5109L8.46521 8.98912L5.71521 17.2391L7.28054 17.7609Z" fill="#868B90"/>
<path d="M11.9993 12L11.9929 12.0064" stroke="#868B90" stroke-width="2" stroke-linecap="round" stroke-linejoin="round"/>
</svg>
