<svg xmlns="http://www.w3.org/2000/svg" width="24" height="24" fill="none" viewBox="0 0 24 24" id="yahoo"><path fill="#A071FF" d="M3 4.25C2.0335 4.25 1.25 5.0335 1.25 6V18C1.25 18.9665 2.0335 19.75 3 19.75H21C21.9665 19.75 22.75 18.9665 22.75 18V6C22.75 5.0335 21.9665 4.25 21 4.25H3Z"></path><path fill="#ECEFF1" d="M4.5 6.75C4.08579 6.75 3.75 7.08579 3.75 7.5V9.5C3.75 9.79139 3.91878 10.0564 4.18284 10.1796L11.6828 13.6796C11.8839 13.7735 12.1161 13.7735 12.3172 13.6796L19.8172 10.1796C20.0812 10.0564 20.25 9.79139 20.25 9.5V7.5C20.25 7.08579 19.9142 6.75 19.5 6.75H4.5Z"></path><path fill="#9065E5" fill-rule="evenodd" d="M12 4.25V19.75H3C2.0335 19.75 1.25 18.9665 1.25 18V6C1.25 5.0335 2.0335 4.25 3 4.25H12Z" clip-rule="evenodd"></path><path fill="#D4D6D8" fill-rule="evenodd" d="M12 6.75V13.75C11.8917 13.75 11.7834 13.7265 11.6828 13.6796L4.18284 10.1796C3.91878 10.0564 3.75 9.79139 3.75 9.5V7.5C3.75 7.08579 4.08579 6.75 4.5 6.75H12Z" clip-rule="evenodd"></path></svg>